<svg viewBox="0 0 32 32" fill="none" xmlns="http://www.w3.org/2000/svg">
    <!-- Bold AB Lettermark - Clear, Obvious, Intentional, Modern -->
    <rect width="32" height="32" rx="7" fill="#1a365d"/>

    <!-- Letter A - Bold geometric -->
    <path d="M5 24L10.5 8H13.5L19 24H16L14.5 20H9.5L8 24H5ZM10.5 17.5H13.5L12 12L10.5 17.5Z" fill="white"/>

    <!-- Letter B - Matching weight -->
    <path d="M20 8H25.5C27.4 8 29 9.6 29 11.5C29 12.8 28.2 13.9 27 14.4C28.4 14.9 29.5 16.2 29.5 17.8C29.5 20 27.8 21.5 25.5 21.5H20V8ZM22.5 13H25C25.8 13 26.5 12.3 26.5 11.5C26.5 10.7 25.8 10 25 10H22.5V13ZM22.5 19.5H25.2C26.2 19.5 27 18.7 27 17.7C27 16.7 26.2 16 25.2 16H22.5V19.5Z" fill="white"/>

    <!-- Gold accent - A crossbar -->
    <rect x="10" y="16" width="4" height="2" rx="1" fill="#d69e2e"/>
</svg>
