<svg viewBox="0 0 32 32" fill="none" xmlns="http://www.w3.org/2000/svg">
    <!-- Clean, modern cloud connector mark - Apple-inspired elegance -->
    <!-- Rounded square container -->
    <rect x="0" y="0" width="32" height="32" rx="7" fill="#1a365d"/>

    <!-- Simplified cloud shape -->
    <path d="M23 18.5C24.4 18.5 25.5 17.4 25.5 16C25.5 14.8 24.7 13.8 23.6 13.5C23.5 11.6 21.9 10 20 10C18.8 10 17.8 10.6 17.2 11.5C16.8 11.2 16.2 11 15.5 11C14 11 12.8 12 12.5 13.3C11.1 13.6 10 14.9 10 16.5C10 18.2 11.3 19.5 13 19.5" stroke="white" stroke-width="1.8" stroke-linecap="round" fill="none"/>

    <!-- Connection nodes - representing integration -->
    <circle cx="14" cy="22" r="1.8" fill="white"/>
    <circle cx="20" cy="22" r="1.8" fill="#d69e2e"/>
    <circle cx="17" cy="18" r="1.5" fill="white" opacity="0.7"/>

    <!-- Connector lines -->
    <line x1="15.5" y1="20.5" x2="16.3" y2="19.3" stroke="white" stroke-width="1.2" stroke-linecap="round" opacity="0.7"/>
    <line x1="18.5" y1="20.5" x2="17.7" y2="19.3" stroke="white" stroke-width="1.2" stroke-linecap="round" opacity="0.7"/>
    <line x1="15.5" y1="22" x2="18.5" y2="22" stroke="white" stroke-width="1.2" stroke-linecap="round"/>
</svg>
