<svg viewBox="0 0 32 32" fill="none" xmlns="http://www.w3.org/2000/svg">
    <!-- AB Monogram with Cloud - Matching official logo -->
    <rect width="32" height="32" rx="6" fill="#1a365d"/>

    <!-- Letter A with cloud forming the crossbar/middle -->
    <path d="M6 24L11 9H14L19 24H16.5L15 20H10L8.5 24H6ZM10.8 17.5H14.2L12.5 12L10.8 17.5Z" fill="white"/>

    <!-- Small cloud accent on A (integrated into crossbar area) -->
    <ellipse cx="12.5" cy="16" rx="2.5" ry="1.5" fill="#4299e1"/>
    <circle cx="10.5" cy="16.3" r="1.2" fill="#4299e1"/>
    <circle cx="14.5" cy="16.3" r="1.2" fill="#4299e1"/>

    <!-- Letter B -->
    <path d="M20 9H24.5C26.5 9 28 10.5 28 12.5C28 13.6 27.4 14.5 26.5 15C27.6 15.5 28.5 16.6 28.5 18C28.5 20 26.8 21.5 24.5 21.5H20V9ZM22.5 13.5H24C24.8 13.5 25.5 12.8 25.5 12C25.5 11.2 24.8 10.5 24 10.5H22.5V13.5ZM22.5 20H24.2C25.2 20 26 19.2 26 18.2C26 17.2 25.2 16.5 24.2 16.5H22.5V20Z" fill="white"/>
</svg>
